# xmcd
#
# Track frame offsets: 
#        150
#        14513
#        30015
#        60051
#        77747
#        96064
#        106332
#        117183
#        130407
#        149561
#        173678
#        204081
#        232951
#
# Disc length: 3317 seconds
#
# Revision: 0
# Processed by: cddbd v1.5PL3 Copyright (c) Steve Scherf et al.
# Submitted via: ExactAudioCopy v0.95a3
#
DISCID=960cf30d
DTITLE=Abner Jay - One Man Band
DYEAR=2003
DGENRE=Blues
TTITLE0=Woke up this morning
TTITLE1=Bring it when you come
TTITLE2=Cocaine blues
TTITLE3=I'm so depressed
TTITLE4=Vietnam
TTITLE5=VD
TTITLE6=I'm a hard working man
TTITLE7=Wee wee
TTITLE8=I wanna job
TTITLE9=Don't mess with me baby
TTITLE10=Royal Palm
TTITLE11=Cocaine
TTITLE12=Swaunee
EXTD=
EXTT0=
EXTT1=
EXTT2=
EXTT3=
EXTT4=
EXTT5=
EXTT6=
EXTT7=
EXTT8=
EXTT9=
EXTT10=
EXTT11=
EXTT12=
PLAYORDER=
